# xmcd
#
# Track frame offsets:
#	150
#	38519
#	57590
#	102041
#	115719
#	149903
#	183110
#	213004
#	239001
#
# Disc length: 3793 seconds
#
# Revision: 0
# Processed by: cddbd v1.5.2PL0 Copyright (c) Steve Scherf et al.
# Submitted via: audiograbber 1.83.01
#
DISCID=7b0ecf09
DTITLE=Grateful Dead - 92-06-25 Soldier Field, Chicago IL
DYEAR=1900
DGENRE=
TTITLE0=Grateful Dead - Bertha
TTITLE1=Grateful Dead - Greatest Story Ever Told
TTITLE2=Grateful Dead - West LA Fadeaway
TTITLE3=Grateful Dead - Me and My Uncle
TTITLE4=Grateful Dead - Big River
TTITLE5=Grateful Dead - Ramble On Rose
TTITLE6=Grateful Dead - When I Paint My Masterpiece
TTITLE7=Grateful Dead - Brown Eyed Women
TTITLE8=Grateful Dead - The Music Never Stopped
EXTD=
EXTT0=
EXTT1=
EXTT2=
EXTT3=
EXTT4=
EXTT5=
EXTT6=
EXTT7=
EXTT8=
PLAYORDER=
